<svg width="34" height="34" viewBox="0 0 34 34" fill="none" xmlns="http://www.w3.org/2000/svg">
<g clip-path="url(#clip0_2_4)">
<path d="M16.9858 2.83333C9.16583 2.83333 2.83333 9.18 2.83333 17C2.83333 24.82 9.16583 31.1667 16.9858 31.1667C24.82 31.1667 31.1667 24.82 31.1667 17C31.1667 9.18 24.82 2.83333 16.9858 2.83333ZM26.8033 11.3333H22.6242C22.1708 9.5625 21.5192 7.8625 20.6692 6.29C23.2758 7.1825 25.4433 8.99583 26.8033 11.3333ZM17 5.72333C18.1758 7.42333 19.0967 9.3075 19.7058 11.3333H14.2942C14.9033 9.3075 15.8242 7.42333 17 5.72333ZM6.035 19.8333C5.80833 18.9267 5.66667 17.9775 5.66667 17C5.66667 16.0225 5.80833 15.0733 6.035 14.1667H10.8233C10.71 15.1017 10.625 16.0367 10.625 17C10.625 17.9633 10.71 18.8983 10.8233 19.8333H6.035ZM7.19667 22.6667H11.3758C11.8292 24.4375 12.4808 26.1375 13.3308 27.71C10.7242 26.8175 8.55667 25.0183 7.19667 22.6667ZM11.3758 11.3333H7.19667C8.55667 8.98167 10.7242 7.1825 13.3308 6.29C12.4808 7.8625 11.8292 9.5625 11.3758 11.3333ZM17 28.2767C15.8242 26.5767 14.9033 24.6925 14.2942 22.6667H19.7058C19.0967 24.6925 18.1758 26.5767 17 28.2767ZM20.315 19.8333H13.685C13.5575 18.8983 13.4583 17.9633 13.4583 17C13.4583 16.0367 13.5575 15.0875 13.685 14.1667H20.315C20.4425 15.0875 20.5417 16.0367 20.5417 17C20.5417 17.9633 20.4425 18.8983 20.315 19.8333ZM20.6692 27.71C21.5192 26.1375 22.1708 24.4375 22.6242 22.6667H26.8033C25.4433 25.0042 23.2758 26.8175 20.6692 27.71ZM23.1767 19.8333C23.29 18.8983 23.375 17.9633 23.375 17C23.375 16.0367 23.29 15.1017 23.1767 14.1667H27.965C28.1917 15.0733 28.3333 16.0225 28.3333 17C28.3333 17.9775 28.1917 18.9267 27.965 19.8333H23.1767Z" fill="#181818"/>
</g>
<defs>
<clipPath id="clip0_2_4">
<rect width="34" height="34" fill="white"/>
</clipPath>
</defs>
</svg>
